<svg viewBox="10 8 50 50" xmlns="http://www.w3.org/2000/svg">
<path d="M57.8268 9.54099H12.1236V54.9796H57.8268V9.54099Z" fill="#D11317"/>
<path d="M52.7518 18.1866L47.6204 26.4126C47.0565 27.3359 47.1411 28.0634 47.3948 28.7629L55.1765 48.5443H22.8939C19.9898 48.5443 17.7625 46.25 17.7625 43.48V17.1514C17.8189 13.7379 22.8093 13.6819 22.8939 17.1514V41.8292C22.8939 42.6127 23.5705 43.508 24.501 43.48H48.1279L42.0097 29.1825C41.8405 28.6509 41.7278 28.0913 41.7278 27.5318C41.7278 26.9722 42.0097 25.9649 42.4044 25.1815L48.0151 16.0042C48.438 15.1649 49.2839 14.6332 50.2707 14.5773C51.6804 14.5213 52.8646 15.4726 52.9209 16.9555C52.9209 17.2633 52.8646 17.9068 52.7236 18.1866" fill="white"/>
<path d="M34.9611 34.8064V17.1514C34.9611 13.7099 40.0361 13.6819 40.0925 17.1514V35.0023C40.0925 39.0873 37.0193 41.7733 33.2412 41.7733C29.4632 41.7733 26.39 39.0033 26.39 35.0023V17.1514C26.39 13.7099 31.5214 13.7099 31.5214 17.1514V34.8064C31.5214 37.1847 34.9611 37.3246 34.9611 34.8064Z" fill="white"/>
</svg>
